# xmcd
#
# Track frame offsets:
#	150
#	12526
#	22723
#	27296
#	38015
#	49753
#	63485
#	75613
#	86847
#	99098
#	110700
#	122498
#	133748
#	142226
#	155691
#	167329
#
# Disc length: 2384 seconds
#
# Revision: 1
# Processed by: cddbd v1.5.2PL0 Copyright (c) Steve Scherf et al.
# Submitted via: audiograbber 1.83.01
#
DISCID=cb094e10
DTITLE=Various Artist - Classic Country - the ultimate collection CD2
DYEAR=1900
DGENRE=Country
TTITLE0=Lynn Anderson - Stand By Your Man
TTITLE1=Patsy Cline - Three Cigarettes In An Ashtray
TTITLE2=Willie Nelson - Where My House Lives
TTITLE3=Kenny Rogers - We All Got To Help Each Other
TTITLE4=Ernest Tubb - Walking The Floor Over You
TTITLE5=Don Williams - Ruby Tuesday
TTITLE6=Guy Mitchell - Lost Highway
TTITLE7=Kitty Wells - It Wasn't God Who Made Honky Tonk Angels
TTITLE8=Leon Payne - I Love You Because
TTITLE9=Chet Atkins - Hello Ma Baby
TTITLE10=George Jones - Play It Cool
TTITLE11=Patsy Cline - Cry Not For Me
TTITLE12=Waylon Jennings - Abilene
TTITLE13=Marty Robbins - Castle In The Sky
TTITLE14=Barbra Fairchild - You Can't Put The Citty In A Country Girl
TTITLE15=Bob Wills and His Texas Playboys - New San Antonio Rose
EXTD=
EXTT0=
EXTT1=
EXTT2=
EXTT3=
EXTT4=
EXTT5=
EXTT6=
EXTT7=
EXTT8=
EXTT9=
EXTT10=
EXTT11=
EXTT12=
EXTT13=
EXTT14=
EXTT15=
PLAYORDER=
